<svg id="visual" viewBox="0 0 960 300" width="960" height="300" xmlns="http://www.w3.org/2000/svg" xmlns:xlink="http://www.w3.org/1999/xlink" version="1.1"><rect x="0" y="0" width="960" height="300" fill="#8BC34A"></rect><path d="M0 117L14.5 120.8C29 124.7 58 132.3 87.2 130.2C116.3 128 145.7 116 174.8 113.7C204 111.3 233 118.7 262 122C291 125.3 320 124.7 349 126C378 127.3 407 130.7 436.2 130.7C465.3 130.7 494.7 127.3 523.8 116.3C553 105.3 582 86.7 611 83.3C640 80 669 92 698 98.2C727 104.3 756 104.7 785.2 106.8C814.3 109 843.7 113 872.8 110.8C902 108.7 931 100.3 945.5 96.2L960 92L960 0L945.5 0C931 0 902 0 872.8 0C843.7 0 814.3 0 785.2 0C756 0 727 0 698 0C669 0 640 0 611 0C582 0 553 0 523.8 0C494.7 0 465.3 0 436.2 0C407 0 378 0 349 0C320 0 291 0 262 0C233 0 204 0 174.8 0C145.7 0 116.3 0 87.2 0C58 0 29 0 14.5 0L0 0Z" fill="#8bc34a"></path><path d="M0 79L14.5 86C29 93 58 107 87.2 108C116.3 109 145.7 97 174.8 91.3C204 85.7 233 86.3 262 88.5C291 90.7 320 94.3 349 91C378 87.7 407 77.3 436.2 79.8C465.3 82.3 494.7 97.7 523.8 102.5C553 107.3 582 101.7 611 97.2C640 92.7 669 89.3 698 86.2C727 83 756 80 785.2 83C814.3 86 843.7 95 872.8 96.7C902 98.3 931 92.7 945.5 89.8L960 87L960 0L945.5 0C931 0 902 0 872.8 0C843.7 0 814.3 0 785.2 0C756 0 727 0 698 0C669 0 640 0 611 0C582 0 553 0 523.8 0C494.7 0 465.3 0 436.2 0C407 0 378 0 349 0C320 0 291 0 262 0C233 0 204 0 174.8 0C145.7 0 116.3 0 87.2 0C58 0 29 0 14.5 0L0 0Z" fill="#9dcc65"></path><path d="M0 98L14.5 94.5C29 91 58 84 87.2 83.5C116.3 83 145.7 89 174.8 84.7C204 80.3 233 65.7 262 66.8C291 68 320 85 349 87.5C378 90 407 78 436.2 77.8C465.3 77.7 494.7 89.3 523.8 88.7C553 88 582 75 611 70.2C640 65.3 669 68.7 698 76.3C727 84 756 96 785.2 95.7C814.3 95.3 843.7 82.7 872.8 72.2C902 61.7 931 53.3 945.5 49.2L960 45L960 0L945.5 0C931 0 902 0 872.8 0C843.7 0 814.3 0 785.2 0C756 0 727 0 698 0C669 0 640 0 611 0C582 0 553 0 523.8 0C494.7 0 465.3 0 436.2 0C407 0 378 0 349 0C320 0 291 0 262 0C233 0 204 0 174.8 0C145.7 0 116.3 0 87.2 0C58 0 29 0 14.5 0L0 0Z" fill="#afd47f"></path><path d="M0 36L14.5 43.5C29 51 58 66 87.2 73.2C116.3 80.3 145.7 79.7 174.8 81.8C204 84 233 89 262 81.8C291 74.7 320 55.3 349 53C378 50.7 407 65.3 436.2 67.2C465.3 69 494.7 58 523.8 54.5C553 51 582 55 611 56.7C640 58.3 669 57.7 698 62.2C727 66.7 756 76.3 785.2 82.3C814.3 88.3 843.7 90.7 872.8 85C902 79.3 931 65.7 945.5 58.8L960 52L960 0L945.5 0C931 0 902 0 872.8 0C843.7 0 814.3 0 785.2 0C756 0 727 0 698 0C669 0 640 0 611 0C582 0 553 0 523.8 0C494.7 0 465.3 0 436.2 0C407 0 378 0 349 0C320 0 291 0 262 0C233 0 204 0 174.8 0C145.7 0 116.3 0 87.2 0C58 0 29 0 14.5 0L0 0Z" fill="#c0dd98"></path><path d="M0 32L14.5 37C29 42 58 52 87.2 59.7C116.3 67.3 145.7 72.7 174.8 74.7C204 76.7 233 75.3 262 72.8C291 70.3 320 66.7 349 59.8C378 53 407 43 436.2 42C465.3 41 494.7 49 523.8 55.3C553 61.7 582 66.3 611 68.2C640 70 669 69 698 62.7C727 56.3 756 44.7 785.2 43C814.3 41.3 843.7 49.7 872.8 56C902 62.3 931 66.7 945.5 68.8L960 71L960 0L945.5 0C931 0 902 0 872.8 0C843.7 0 814.3 0 785.2 0C756 0 727 0 698 0C669 0 640 0 611 0C582 0 553 0 523.8 0C494.7 0 465.3 0 436.2 0C407 0 378 0 349 0C320 0 291 0 262 0C233 0 204 0 174.8 0C145.7 0 116.3 0 87.2 0C58 0 29 0 14.5 0L0 0Z" fill="#d0e5b2"></path><path d="M0 36L14.5 39.5C29 43 58 50 87.2 51.3C116.3 52.7 145.7 48.3 174.8 48.2C204 48 233 52 262 54.8C291 57.7 320 59.3 349 53.8C378 48.3 407 35.7 436.2 33.3C465.3 31 494.7 39 523.8 38.5C553 38 582 29 611 30.2C640 31.3 669 42.7 698 46.2C727 49.7 756 45.3 785.2 46.8C814.3 48.3 843.7 55.7 872.8 54.2C902 52.7 931 42.3 945.5 37.2L960 32L960 0L945.5 0C931 0 902 0 872.8 0C843.7 0 814.3 0 785.2 0C756 0 727 0 698 0C669 0 640 0 611 0C582 0 553 0 523.8 0C494.7 0 465.3 0 436.2 0C407 0 378 0 349 0C320 0 291 0 262 0C233 0 204 0 174.8 0C145.7 0 116.3 0 87.2 0C58 0 29 0 14.5 0L0 0Z" fill="#e0eecb"></path><path d="M0 31L14.5 32.3C29 33.7 58 36.3 87.2 34.2C116.3 32 145.7 25 174.8 20.7C204 16.3 233 14.7 262 14.2C291 13.7 320 14.3 349 18C378 21.7 407 28.3 436.2 31.7C465.3 35 494.7 35 523.8 34.7C553 34.3 582 33.7 611 29.8C640 26 669 19 698 21C727 23 756 34 785.2 34.8C814.3 35.7 843.7 26.3 872.8 22.3C902 18.3 931 19.7 945.5 20.3L960 21L960 0L945.5 0C931 0 902 0 872.8 0C843.7 0 814.3 0 785.2 0C756 0 727 0 698 0C669 0 640 0 611 0C582 0 553 0 523.8 0C494.7 0 465.3 0 436.2 0C407 0 378 0 349 0C320 0 291 0 262 0C233 0 204 0 174.8 0C145.7 0 116.3 0 87.2 0C58 0 29 0 14.5 0L0 0Z" fill="#f0f6e5"></path><path d="M0 25L14.5 21.2C29 17.3 58 9.7 87.2 5.8C116.3 2 145.7 2 174.8 6.5C204 11 233 20 262 20.7C291 21.3 320 13.7 349 11.3C378 9 407 12 436.2 15.2C465.3 18.3 494.7 21.7 523.8 23.3C553 25 582 25 611 22.5C640 20 669 15 698 11.5C727 8 756 6 785.2 5.2C814.3 4.3 843.7 4.7 872.8 5.8C902 7 931 9 945.5 10L960 11L960 0L945.5 0C931 0 902 0 872.8 0C843.7 0 814.3 0 785.2 0C756 0 727 0 698 0C669 0 640 0 611 0C582 0 553 0 523.8 0C494.7 0 465.3 0 436.2 0C407 0 378 0 349 0C320 0 291 0 262 0C233 0 204 0 174.8 0C145.7 0 116.3 0 87.2 0C58 0 29 0 14.5 0L0 0Z" fill="#ffffff"></path></svg>