<svg id="visual" viewBox="0 0 960 300" width="960" height="300" xmlns="http://www.w3.org/2000/svg" xmlns:xlink="http://www.w3.org/1999/xlink" version="1.1"><rect x="0" y="0" width="960" height="300" fill="#DDEEDF"></rect><path d="M0 120L14.5 123.3C29 126.7 58 133.3 87.2 130.7C116.3 128 145.7 116 174.8 111.3C204 106.7 233 109.3 262 111.8C291 114.3 320 116.7 349 113.7C378 110.7 407 102.3 436.2 99C465.3 95.7 494.7 97.3 523.8 105.3C553 113.3 582 127.7 611 131.7C640 135.7 669 129.3 698 116.5C727 103.7 756 84.3 785.2 73.3C814.3 62.3 843.7 59.7 872.8 60.2C902 60.7 931 64.3 945.5 66.2L960 68L960 0L945.5 0C931 0 902 0 872.8 0C843.7 0 814.3 0 785.2 0C756 0 727 0 698 0C669 0 640 0 611 0C582 0 553 0 523.8 0C494.7 0 465.3 0 436.2 0C407 0 378 0 349 0C320 0 291 0 262 0C233 0 204 0 174.8 0C145.7 0 116.3 0 87.2 0C58 0 29 0 14.5 0L0 0Z" fill="#ddeedf"></path><path d="M0 58L14.5 56C29 54 58 50 87.2 58.8C116.3 67.7 145.7 89.3 174.8 91.5C204 93.7 233 76.3 262 76.3C291 76.3 320 93.7 349 93.2C378 92.7 407 74.3 436.2 68.5C465.3 62.7 494.7 69.3 523.8 67.2C553 65 582 54 611 56.3C640 58.7 669 74.3 698 82.7C727 91 756 92 785.2 93.2C814.3 94.3 843.7 95.7 872.8 87.8C902 80 931 63 945.5 54.5L960 46L960 0L945.5 0C931 0 902 0 872.8 0C843.7 0 814.3 0 785.2 0C756 0 727 0 698 0C669 0 640 0 611 0C582 0 553 0 523.8 0C494.7 0 465.3 0 436.2 0C407 0 378 0 349 0C320 0 291 0 262 0C233 0 204 0 174.8 0C145.7 0 116.3 0 87.2 0C58 0 29 0 14.5 0L0 0Z" fill="#b3d6b6"></path><path d="M0 36L14.5 36.8C29 37.7 58 39.3 87.2 40.8C116.3 42.3 145.7 43.7 174.8 43.7C204 43.7 233 42.3 262 40.8C291 39.3 320 37.7 349 41.3C378 45 407 54 436.2 58.3C465.3 62.7 494.7 62.3 523.8 58.7C553 55 582 48 611 44.2C640 40.3 669 39.7 698 42.3C727 45 756 51 785.2 59.3C814.3 67.7 843.7 78.3 872.8 79.8C902 81.3 931 73.7 945.5 69.8L960 66L960 0L945.5 0C931 0 902 0 872.8 0C843.7 0 814.3 0 785.2 0C756 0 727 0 698 0C669 0 640 0 611 0C582 0 553 0 523.8 0C494.7 0 465.3 0 436.2 0C407 0 378 0 349 0C320 0 291 0 262 0C233 0 204 0 174.8 0C145.7 0 116.3 0 87.2 0C58 0 29 0 14.5 0L0 0Z" fill="#8bbe8d"></path><path d="M0 32L14.5 36.3C29 40.7 58 49.3 87.2 46.7C116.3 44 145.7 30 174.8 28.8C204 27.7 233 39.3 262 46.2C291 53 320 55 349 53.2C378 51.3 407 45.7 436.2 42.7C465.3 39.7 494.7 39.3 523.8 41.7C553 44 582 49 611 45.7C640 42.3 669 30.7 698 33.5C727 36.3 756 53.7 785.2 54.2C814.3 54.7 843.7 38.3 872.8 31.7C902 25 931 28 945.5 29.5L960 31L960 0L945.5 0C931 0 902 0 872.8 0C843.7 0 814.3 0 785.2 0C756 0 727 0 698 0C669 0 640 0 611 0C582 0 553 0 523.8 0C494.7 0 465.3 0 436.2 0C407 0 378 0 349 0C320 0 291 0 262 0C233 0 204 0 174.8 0C145.7 0 116.3 0 87.2 0C58 0 29 0 14.5 0L0 0Z" fill="#63a665"></path><path d="M0 34L14.5 35.5C29 37 58 40 87.2 34.7C116.3 29.3 145.7 15.7 174.8 9C204 2.3 233 2.7 262 10C291 17.3 320 31.7 349 32.8C378 34 407 22 436.2 15.2C465.3 8.3 494.7 6.7 523.8 10.3C553 14 582 23 611 29.8C640 36.7 669 41.3 698 40.7C727 40 756 34 785.2 32.7C814.3 31.3 843.7 34.7 872.8 35.3C902 36 931 34 945.5 33L960 32L960 0L945.5 0C931 0 902 0 872.8 0C843.7 0 814.3 0 785.2 0C756 0 727 0 698 0C669 0 640 0 611 0C582 0 553 0 523.8 0C494.7 0 465.3 0 436.2 0C407 0 378 0 349 0C320 0 291 0 262 0C233 0 204 0 174.8 0C145.7 0 116.3 0 87.2 0C58 0 29 0 14.5 0L0 0Z" fill="#388e3c"></path></svg>