<svg id="visual" viewBox="0 0 960 200" width="960" height="200" xmlns="http://www.w3.org/2000/svg" xmlns:xlink="http://www.w3.org/1999/xlink" version="1.1"><rect x="0" y="0" width="960" height="200" fill="#388E3C"></rect><path d="M0 109L14.5 112.5C29 116 58 123 87.2 121C116.3 119 145.7 108 174.8 105.8C204 103.7 233 110.3 262 113.3C291 116.3 320 115.7 349 117C378 118.3 407 121.7 436.2 121.8C465.3 122 494.7 119 523.8 108.8C553 98.7 582 81.3 611 78.2C640 75 669 86 698 91.7C727 97.3 756 97.7 785.2 99.7C814.3 101.7 843.7 105.3 872.8 103.3C902 101.3 931 93.7 945.5 89.8L960 86L960 0L945.5 0C931 0 902 0 872.8 0C843.7 0 814.3 0 785.2 0C756 0 727 0 698 0C669 0 640 0 611 0C582 0 553 0 523.8 0C494.7 0 465.3 0 436.2 0C407 0 378 0 349 0C320 0 291 0 262 0C233 0 204 0 174.8 0C145.7 0 116.3 0 87.2 0C58 0 29 0 14.5 0L0 0Z" fill="#388e3c"></path><path d="M0 73L14.5 79.5C29 86 58 99 87.2 100C116.3 101 145.7 90 174.8 84.8C204 79.7 233 80.3 262 82.3C291 84.3 320 87.7 349 84.5C378 81.3 407 71.7 436.2 74C465.3 76.3 494.7 90.7 523.8 95.2C553 99.7 582 94.3 611 90.2C640 86 669 83 698 80C727 77 756 74 785.2 76.8C814.3 79.7 843.7 88.3 872.8 90C902 91.7 931 86.3 945.5 83.7L960 81L960 0L945.5 0C931 0 902 0 872.8 0C843.7 0 814.3 0 785.2 0C756 0 727 0 698 0C669 0 640 0 611 0C582 0 553 0 523.8 0C494.7 0 465.3 0 436.2 0C407 0 378 0 349 0C320 0 291 0 262 0C233 0 204 0 174.8 0C145.7 0 116.3 0 87.2 0C58 0 29 0 14.5 0L0 0Z" fill="#44963e"></path><path d="M0 91L14.5 87.8C29 84.7 58 78.3 87.2 78C116.3 77.7 145.7 83.3 174.8 79.3C204 75.3 233 61.7 262 62.7C291 63.7 320 79.3 349 81.7C378 84 407 73 436.2 72.8C465.3 72.7 494.7 83.3 523.8 82.7C553 82 582 70 611 65.7C640 61.3 669 64.7 698 71.7C727 78.7 756 89.3 785.2 88.8C814.3 88.3 843.7 76.7 872.8 67C902 57.3 931 49.7 945.5 45.8L960 42L960 0L945.5 0C931 0 902 0 872.8 0C843.7 0 814.3 0 785.2 0C756 0 727 0 698 0C669 0 640 0 611 0C582 0 553 0 523.8 0C494.7 0 465.3 0 436.2 0C407 0 378 0 349 0C320 0 291 0 262 0C233 0 204 0 174.8 0C145.7 0 116.3 0 87.2 0C58 0 29 0 14.5 0L0 0Z" fill="#509d40"></path><path d="M0 34L14.5 40.8C29 47.7 58 61.3 87.2 67.8C116.3 74.3 145.7 73.7 174.8 75.8C204 78 233 83 262 76.5C291 70 320 52 349 49.7C378 47.3 407 60.7 436.2 62.3C465.3 64 494.7 54 523.8 50.8C553 47.7 582 51.3 611 52.8C640 54.3 669 53.7 698 57.8C727 62 756 71 785.2 76.5C814.3 82 843.7 84 872.8 78.7C902 73.3 931 60.7 945.5 54.3L960 48L960 0L945.5 0C931 0 902 0 872.8 0C843.7 0 814.3 0 785.2 0C756 0 727 0 698 0C669 0 640 0 611 0C582 0 553 0 523.8 0C494.7 0 465.3 0 436.2 0C407 0 378 0 349 0C320 0 291 0 262 0C233 0 204 0 174.8 0C145.7 0 116.3 0 87.2 0C58 0 29 0 14.5 0L0 0Z" fill="#5ba542"></path><path d="M0 29L14.5 33.8C29 38.7 58 48.3 87.2 55.7C116.3 63 145.7 68 174.8 69.8C204 71.7 233 70.3 262 68C291 65.7 320 62.3 349 56C378 49.7 407 40.3 436.2 39.3C465.3 38.3 494.7 45.7 523.8 51.5C553 57.3 582 61.7 611 63.5C640 65.3 669 64.7 698 58.8C727 53 756 42 785.2 40.3C814.3 38.7 843.7 46.3 872.8 52.2C902 58 931 62 945.5 64L960 66L960 0L945.5 0C931 0 902 0 872.8 0C843.7 0 814.3 0 785.2 0C756 0 727 0 698 0C669 0 640 0 611 0C582 0 553 0 523.8 0C494.7 0 465.3 0 436.2 0C407 0 378 0 349 0C320 0 291 0 262 0C233 0 204 0 174.8 0C145.7 0 116.3 0 87.2 0C58 0 29 0 14.5 0L0 0Z" fill="#67ad44"></path><path d="M0 34L14.5 37.3C29 40.7 58 47.3 87.2 48.5C116.3 49.7 145.7 45.3 174.8 45.2C204 45 233 49 262 51.7C291 54.3 320 55.7 349 50.3C378 45 407 33 436.2 30.8C465.3 28.7 494.7 36.3 523.8 35.8C553 35.3 582 26.7 611 27.7C640 28.7 669 39.3 698 42.7C727 46 756 42 785.2 43.3C814.3 44.7 843.7 51.3 872.8 50C902 48.7 931 39.3 945.5 34.7L960 30L960 0L945.5 0C931 0 902 0 872.8 0C843.7 0 814.3 0 785.2 0C756 0 727 0 698 0C669 0 640 0 611 0C582 0 553 0 523.8 0C494.7 0 465.3 0 436.2 0C407 0 378 0 349 0C320 0 291 0 262 0C233 0 204 0 174.8 0C145.7 0 116.3 0 87.2 0C58 0 29 0 14.5 0L0 0Z" fill="#73b446"></path><path d="M0 29L14.5 30.3C29 31.7 58 34.3 87.2 32.3C116.3 30.3 145.7 23.7 174.8 19.5C204 15.3 233 13.7 262 13.2C291 12.7 320 13.3 349 16.8C378 20.3 407 26.7 436.2 29.7C465.3 32.7 494.7 32.3 523.8 31.8C553 31.3 582 30.7 611 27.2C640 23.7 669 17.3 698 19.3C727 21.3 756 31.7 785.2 32.5C814.3 33.3 843.7 24.7 872.8 21C902 17.3 931 18.7 945.5 19.3L960 20L960 0L945.5 0C931 0 902 0 872.8 0C843.7 0 814.3 0 785.2 0C756 0 727 0 698 0C669 0 640 0 611 0C582 0 553 0 523.8 0C494.7 0 465.3 0 436.2 0C407 0 378 0 349 0C320 0 291 0 262 0C233 0 204 0 174.8 0C145.7 0 116.3 0 87.2 0C58 0 29 0 14.5 0L0 0Z" fill="#7fbc48"></path><path d="M0 24L14.5 20.2C29 16.3 58 8.7 87.2 5C116.3 1.3 145.7 1.7 174.8 6C204 10.3 233 18.7 262 19.2C291 19.7 320 12.3 349 10.2C378 8 407 11 436.2 14C465.3 17 494.7 20 523.8 21.5C553 23 582 23 611 20.8C640 18.7 669 14.3 698 11.2C727 8 756 6 785.2 5.2C814.3 4.3 843.7 4.7 872.8 5.7C902 6.7 931 8.3 945.5 9.2L960 10L960 0L945.5 0C931 0 902 0 872.8 0C843.7 0 814.3 0 785.2 0C756 0 727 0 698 0C669 0 640 0 611 0C582 0 553 0 523.8 0C494.7 0 465.3 0 436.2 0C407 0 378 0 349 0C320 0 291 0 262 0C233 0 204 0 174.8 0C145.7 0 116.3 0 87.2 0C58 0 29 0 14.5 0L0 0Z" fill="#8bc34a"></path></svg>