<svg id="visual" viewBox="0 0 960 540" width="960" height="540" xmlns="http://www.w3.org/2000/svg" xmlns:xlink="http://www.w3.org/1999/xlink" version="1.1"><rect x="0" y="0" width="960" height="540" fill="#8BC34A"></rect><defs><linearGradient id="grad1_0" x1="43.8%" y1="0%" x2="100%" y2="100%"><stop offset="14.444444444444446%" stop-color="#388e3c" stop-opacity="1"></stop><stop offset="85.55555555555554%" stop-color="#388e3c" stop-opacity="1"></stop></linearGradient></defs><defs><linearGradient id="grad1_1" x1="43.8%" y1="0%" x2="100%" y2="100%"><stop offset="14.444444444444446%" stop-color="#388e3c" stop-opacity="1"></stop><stop offset="85.55555555555554%" stop-color="#8bc34a" stop-opacity="1"></stop></linearGradient></defs><defs><linearGradient id="grad2_0" x1="0%" y1="0%" x2="56.3%" y2="100%"><stop offset="14.444444444444446%" stop-color="#388e3c" stop-opacity="1"></stop><stop offset="85.55555555555554%" stop-color="#388e3c" stop-opacity="1"></stop></linearGradient></defs><defs><linearGradient id="grad2_1" x1="0%" y1="0%" x2="56.3%" y2="100%"><stop offset="14.444444444444446%" stop-color="#8bc34a" stop-opacity="1"></stop><stop offset="85.55555555555554%" stop-color="#388e3c" stop-opacity="1"></stop></linearGradient></defs><g transform="translate(960, 0)"><path d="M0 405C-39.2 408.9 -78.4 412.7 -104.8 391.2C-131.3 369.7 -144.9 322.7 -175 303.1C-205.1 283.5 -251.6 291.3 -268 268C-284.4 244.6 -270.7 190.1 -267.6 154.5C-264.5 118.9 -271.9 102.1 -296.5 79.5C-321.2 56.9 -363.1 28.4 -405 0L0 0Z" fill="#61a943"></path><path d="M0 202.5C-19.6 204.4 -39.2 206.4 -52.4 195.6C-65.6 184.8 -72.5 161.3 -87.5 151.6C-102.5 141.8 -125.8 145.7 -134 134C-142.2 122.3 -135.4 95.1 -133.8 77.3C-132.2 59.4 -135.9 51 -148.3 39.7C-160.6 28.4 -181.5 14.2 -202.5 0L0 0Z" fill="#388e3c"></path></g><g transform="translate(0, 540)"><path d="M0 -405C31 -383.1 62 -361.3 94.7 -353.5C127.5 -345.8 162 -352.2 200 -346.4C238 -340.6 279.7 -322.6 285 -285C290.3 -247.3 259.3 -190.1 277.1 -160C295 -129.9 361.7 -127 391.2 -104.8C420.7 -82.7 412.8 -41.3 405 0L0 0Z" fill="#61a943"></path><path d="M0 -202.5C15.5 -191.6 31 -180.6 47.4 -176.8C63.7 -172.9 81 -176.1 100 -173.2C119 -170.3 139.8 -161.3 142.5 -142.5C145.1 -123.7 129.6 -95 138.6 -80C147.5 -65 180.9 -63.5 195.6 -52.4C210.3 -41.3 206.4 -20.7 202.5 0L0 0Z" fill="#388e3c"></path></g></svg>